<svg width="14" height="18" viewBox="0 0 14 18" fill="none" xmlns="http://www.w3.org/2000/svg">
<path d="M0.4375 10.5C0.4375 10.1893 0.68934 9.9375 1 9.9375H3.25C3.34479 9.9375 3.43804 9.96145 3.5211 10.0071L5.26949 10.9688H5.875C6.8038 10.9688 7.57329 11.4439 7.98589 12.0783L5.5 13.2819L3.42788 12.5912L3.07212 13.6585L5.32212 14.4085C5.43758 14.447 5.56241 14.447 5.67788 14.4085L9.09735 12.7348V11.7078L10.7298 11.1636C11.7658 10.8183 12.8915 11.3404 13.297 12.3543L13.5218 12.9161C13.6304 13.1877 13.5127 13.4973 13.251 13.6281L6.50104 17.0031C6.37562 17.0658 6.2313 17.0794 6.09637 17.0413L0.846882 15.5562C0.604697 15.4877 0.4375 15.2667 0.4375 15.015V10.5Z" fill="#64D3C2"/>
<path d="M6.80074 1.17077C7.02974 1.26954 7.2224 1.38648 7.3741 1.49417C7.5258 1.38648 7.71844 1.26954 7.94743 1.17078C8.57751 0.899013 9.46931 0.774565 10.4709 1.31473C11.7418 2.00013 12.3259 3.60953 11.9464 5.21613C11.559 6.85596 10.192 8.50225 7.57309 9.48831L7.3741 9.56323L7.17512 9.48831C4.55616 8.50225 3.18917 6.85596 2.80181 5.21613C2.4223 3.60953 3.00639 2.00013 4.27726 1.31473C5.27884 0.77456 6.17066 0.899012 6.80074 1.17077Z" fill="#64D3C2"/>
</svg>
