<svg width="30" height="31" viewBox="0 0 30 31" fill="none" xmlns="http://www.w3.org/2000/svg">
<path fill-rule="evenodd" clip-rule="evenodd" d="M19.9913 13.2773L14.2188 19.0498C14.035 19.2335 13.7963 19.3248 13.5563 19.3248C13.315 19.3248 13.0763 19.2335 12.8925 19.0498L10.0063 16.1635C9.64 15.7973 9.64 15.2035 10.0063 14.8373C10.3725 14.471 10.965 14.471 11.3313 14.8373L13.5563 17.061L18.665 11.951C19.0313 11.5848 19.625 11.5848 19.9913 11.951C20.3575 12.3173 20.3575 12.911 19.9913 13.2773ZM15 3.62476C8.4525 3.62476 3.125 8.95226 3.125 15.4998C3.125 22.0485 8.4525 27.3748 15 27.3748C21.5475 27.3748 26.875 22.0485 26.875 15.4998C26.875 8.95226 21.5475 3.62476 15 3.62476Z" fill="#5ABEAF"/>
</svg>
