<svg width="16" height="13" viewBox="0 0 16 13" fill="none" xmlns="http://www.w3.org/2000/svg">
<path d="M15.8865 12.3069L15.8865 8.82958C15.8865 7.82958 15.699 6.78981 15.324 5.71026C14.9376 4.61935 14.4149 3.59094 13.7558 2.62503C13.0853 1.64776 12.3353 0.823898 11.5058 0.153442L8.64216 2.0114C9.31261 3.02276 9.87511 4.07958 10.3297 5.18185C10.7728 6.27276 10.9887 7.47731 10.9774 8.79549L10.9774 12.3069L15.8865 12.3069ZM7.24443 12.3069L7.24443 8.82958C7.24443 7.82958 7.05693 6.78981 6.68193 5.71026C6.29557 4.61935 5.77284 3.59094 5.11375 2.62503C4.44329 1.64776 3.69329 0.823897 2.86375 0.153441L0.000111417 2.0114C0.670565 3.02276 1.23307 4.07958 1.68761 5.18185C2.13079 6.27276 2.3467 7.47731 2.33534 8.79549L2.33534 12.3069L7.24443 12.3069Z" fill="#64D3C2"/>
</svg>
